Coordinates
version=1
nRows=5
nColumns=63
inDegrees=yes

Units are S.I. units (second, meters, Newtons, ...)
If the header above contains a line with 'inDegrees', this indicates whether rotational values are in degrees (yes) or radians (no).

endheader
time	pelvis_tilt	pelvis_list	pelvis_rotation	pelvis_tx	pelvis_ty	pelvis_tz	hip_flexion_r	hip_adduction_r	hip_rotation_r	knee_angle_r	knee_angle_r_beta	ankle_angle_r	subtalar_angle_r	mtp_angle_r	hip_flexion_l	hip_adduction_l	hip_rotation_l	knee_angle_l	knee_angle_l_beta	ankle_angle_l	subtalar_angle_l	mtp_angle_l	L5_S1_Flex_Ext	L5_S1_Lat_Bending	L5_S1_axial_rotation	L4_L5_Flex_Ext	L4_L5_Lat_Bending	L4_L5_axial_rotation	L3_L4_Flex_Ext	L3_L4_Lat_Bending	L3_L4_axial_rotation	L2_L3_Flex_Ext	L2_L3_Lat_Bending	L2_L3_axial_rotation	L1_L2_Flex_Ext	L1_L2_Lat_Bending	L1_L2_axial_rotation	L1_T12_Flex_Ext	L1_T12_Lat_Bending	L1_T12_axial_rotation	Abs_r3	Abs_r2	Abs_r1	Abs_t1	Abs_t2	neck_flexion	neck_bending	neck_rotation	arm_flex_r	arm_add_r	arm_rot_r	elbow_flex_r	pro_sup_r	wrist_flex_r	wrist_dev_r	arm_flex_l	arm_add_l	arm_rot_l	elbow_flex_l	pro_sup_l	wrist_flex_l	wrist_dev_l
      1.77966102	      6.83127445	      7.84943557	     88.15304542	      0.09388243	      0.77300048	      0.82998142	      0.57367352	      1.45667004	     -3.72683519	     13.73654495	      0.23974794	     30.19733732	     15.97913855	      0.00000000	     -3.99160009	     -0.96023867	     10.15722868	      5.70647097	      0.09959671	     27.72761066	    -10.94471354	      0.00000000	     -0.30484036	      1.03485765	      1.64453451	     -0.56611903	      1.37636067	      1.74731792	     -0.50082223	      2.51615288	      1.74731792	     -0.34840205	      2.51615288	      1.43896770	     -0.28307476	      2.11028171	      1.33618429	     -0.17418578	      1.60299449	      1.23340089	     -2.17744422	     11.70651667	      9.14640761	      0.00000000	      0.00000000	      2.92204105	     -6.55536096	     12.24876540	     11.63775357	    -26.09912976	     50.30127657	     25.11233103	     88.84717771	    -30.63048435	     -0.15228454	      6.38052701	    -12.67141393	     38.92725118	     31.71850869	     88.93754868	    -42.47674386	     -4.12963311
      1.79661017	      6.94425859	      7.61683669	     88.02852278	      0.09399674	      0.77168973	      0.82957038	      0.79572735	      1.58217379	     -3.56791563	     13.71410861	      0.23935635	     30.40103080	     15.79402910	      0.00000000	     -3.96974875	     -1.05844789	     10.75109751	      5.37252089	      0.09376818	     27.46681157	    -11.95910024	      0.00000000	     -0.29645559	      1.03197012	      1.64171390	     -0.55054769	      1.37252026	      1.74432102	     -0.48704690	      2.50913215	      1.74432102	     -0.33881910	      2.50913215	      1.43649966	     -0.27528867	      2.10439347	      1.33389254	     -0.16939473	      1.59852172	      1.23128542	     -2.11755267	     11.67385239	      9.13072019	      0.00000000	      0.00000000	      4.49586552	     -6.01546112	     12.18393397	     10.39663978	    -25.43780799	     46.17850689	     26.43936079	     88.75633379	    -26.64358801	      0.63829081	      5.47999314	    -11.88965024	     35.10163201	     32.27322067	     88.89823737	    -36.72933893	     -2.12055003
      1.81355932	      6.90157033	      7.36462517	     88.21535508	      0.09413401	      0.77048166	      0.82965314	      1.08354679	      1.56718721	     -3.62159463	     13.69429650	      0.23901056	     30.69251793	     15.58327018	      0.00000000	     -3.79955290	     -1.04397600	     11.26258415	      5.14686038	      0.08982966	     27.40388492	    -12.63785355	      0.00000000	     -0.28089709	      0.99688596	      1.60060694	     -0.52165398	      1.32585833	      1.70064487	     -0.46148583	      2.42382853	      1.70064487	     -0.32103728	      2.42382853	      1.40053107	     -0.26084104	      2.03284985	      1.30049314	     -0.16050460	      1.54417635	      1.20045520	     -2.00641982	     11.27697338	      8.90209560	      0.00000000	      0.00000000	      6.01220505	     -5.30148163	     11.46050089	      8.94478683	    -24.44301315	     40.91329041	     28.47412091	     88.68936274	    -22.42871298	      1.61701757	      4.70106161	    -11.16206761	     31.77297403	     32.77207173	     88.73460355	    -31.36735306	     -0.91083362
      1.83050847	      6.79054024	      7.01257276	     88.65753859	      0.09431750	      0.76936385	      0.83017530	      1.53464033	      1.50072998	     -3.90345646	     13.73392821	      0.23970227	     30.96821443	     15.32239431	      0.00000000	     -3.42120841	     -1.00016007	     11.72020043	      4.98561200	      0.08701534	     27.46046670	    -13.10394869	      0.00000000	     -0.24591041	      0.94334543	      1.52924612	     -0.45668022	      1.25464943	      1.62482401	     -0.40400621	      2.29365008	      1.62482401	     -0.28105101	      2.29365008	      1.33809036	     -0.22835241	      1.92367001	      1.24251248	     -0.14051321	      1.46124208	      1.14693459	     -1.75651347	     10.67131220	      8.50520817	      0.00000000	      0.00000000	      7.47674464	     -4.39296977	     10.26762700	      7.73334072	    -23.24658670	     36.87493762	     30.79514318	     88.63929765	    -19.12410496	      2.55675692	      4.14476058	    -10.60835999	     29.98101939	     33.22673345	     88.51851644	    -27.12185955	     -0.28811468
      1.84745763	      6.54826241	      6.62952309	     89.34386423	      0.09483771	      0.76845616	      0.83151261	      2.04121170	      1.34351275	     -4.23849920	     13.73366129	      0.23969761	     31.24063302	     15.00629814	      0.00000000	     -2.83377016	     -0.86206452	     12.11274366	      5.00275306	      0.08731451	     27.61819232	    -13.17724926	      0.00000000	     -0.20967797	      0.86521169	      1.40081006	     -0.38939296	      1.15073155	      1.48836069	     -0.34447994	      2.10367571	      1.48836069	     -0.23964095	      2.10367571	      1.22570880	     -0.19470696	      1.76433968	      1.13815818	     -0.11980999	      1.34021291	      1.05060755	     -1.49770878	      9.78744771	      7.79088532	      0.00000000	      0.00000000	      8.61887259	     -3.45391339	      8.89282480	      7.25238090	    -21.93836267	     35.17350752	     33.11139987	     88.61773107	    -16.96416730	      3.39120413	      4.13814170	    -10.57985973	     30.65914054	     33.63065035	     88.35217929	    -23.76411869	      0.15587924
